<svg id="Layer_2" data-name="Layer 2" xmlns="http://www.w3.org/2000/svg" xmlns:xlink="http://www.w3.org/1999/xlink" viewBox="0 0 109.54 28.31"><defs><linearGradient id="New_Gradient_Swatch_1" data-name="New Gradient Swatch 1" x1="40.75" y1="10.94" x2="78.17" y2="10.94" gradientUnits="userSpaceOnUse"><stop offset="0" stop-color="#2e3192"/><stop offset="1" stop-color="#00aeef"/></linearGradient><linearGradient id="New_Gradient_Swatch_1-2" data-name="New Gradient Swatch 1" x1="40.75" y1="7.23" x2="78.17" y2="7.23" xlink:href="#New_Gradient_Swatch_1"/><linearGradient id="New_Gradient_Swatch_1-3" data-name="New Gradient Swatch 1" x1="40.75" y1="4.36" x2="78.17" y2="4.36" xlink:href="#New_Gradient_Swatch_1"/><linearGradient id="New_Gradient_Swatch_1-4" data-name="New Gradient Swatch 1" x1="40.75" y1="2.66" x2="78.16" y2="2.66" xlink:href="#New_Gradient_Swatch_1"/><linearGradient id="New_Gradient_Swatch_1-5" data-name="New Gradient Swatch 1" x1="40.75" y1="1.75" x2="78.17" y2="1.75" xlink:href="#New_Gradient_Swatch_1"/><linearGradient id="New_Gradient_Swatch_1-6" data-name="New Gradient Swatch 1" x1="40.75" y1="2.28" x2="78.17" y2="2.28" xlink:href="#New_Gradient_Swatch_1"/><linearGradient id="New_Gradient_Swatch_1-7" data-name="New Gradient Swatch 1" x1="40.75" y1="3.75" x2="78.17" y2="3.75" xlink:href="#New_Gradient_Swatch_1"/><linearGradient id="New_Gradient_Swatch_1-8" data-name="New Gradient Swatch 1" x1="40.75" y1="6.29" x2="78.17" y2="6.29" xlink:href="#New_Gradient_Swatch_1"/><linearGradient id="New_Gradient_Swatch_1-9" data-name="New Gradient Swatch 1" x1="40.75" y1="10.34" x2="78.17" y2="10.34" xlink:href="#New_Gradient_Swatch_1"/><style>.cls-2{fill:#2e3192}</style></defs><g id="Layer_1-2" data-name="Layer 1"><path class="cls-2" d="M0 13.74h4.18c1.25 0 2.3.29 3.12.88.83.59 1.42 1.43 1.77 2.52.35 1.09.53 2.29.53 3.61 0 2.21-.5 3.99-1.5 5.33-1 1.34-2.46 2.01-4.38 2.01H0V13.74Zm3.35 2.79v8.75h.24c1.73 0 2.59-1.57 2.59-4.71 0-1.21-.19-2.19-.56-2.93-.37-.74-.98-1.11-1.83-1.11h-.44Zm14.59 10.72c-1.25.7-2.42 1.06-3.51 1.06-1.41 0-2.56-.48-3.44-1.43-.88-.95-1.32-2.17-1.32-3.65s.42-2.65 1.25-3.65c.83-1 1.95-1.5 3.34-1.5 1.23 0 2.22.43 2.96 1.29.74.86 1.11 2 1.11 3.44v.81h-5.28c.15.65.41 1.15.77 1.47.36.33.83.49 1.41.49.45 0 .85-.1 1.23-.3.37-.2.86-.55 1.47-1.06v3.03Zm-2.47-5.37v-.33c0-.45-.12-.83-.35-1.14-.23-.31-.53-.47-.88-.47-.41 0-.73.16-.95.48-.22.32-.35.81-.39 1.46h2.57Zm3.69-8.14h3.21v5.53c.32-.4.66-.7 1.02-.9.36-.2.73-.3 1.12-.3.99 0 1.8.49 2.41 1.47.62.98.93 2.12.93 3.44 0 1.48-.37 2.74-1.1 3.78-.73 1.03-1.6 1.55-2.59 1.55-.37 0-.72-.09-1.06-.27a3.48 3.48 0 0 1-.97-.79l-.88.83h-2.09V13.73Zm3.21 11.27c.14.18.28.31.42.4.15.09.3.13.46.13.37 0 .67-.21.9-.65.23-.43.35-1.03.35-1.8 0-.71-.1-1.25-.3-1.65-.2-.39-.48-.59-.83-.59-.33 0-.58.15-.75.46-.17.3-.25.77-.25 1.38V25Zm6.25-11.27h3.21v5.53c.32-.4.66-.7 1.02-.9.36-.2.73-.3 1.12-.3.99 0 1.8.49 2.41 1.47.62.98.93 2.12.93 3.44 0 1.48-.37 2.74-1.1 3.78-.73 1.03-1.6 1.55-2.59 1.55-.37 0-.72-.09-1.06-.27a3.48 3.48 0 0 1-.97-.79l-.88.83h-2.09V13.73Zm3.21 11.27c.14.18.28.31.42.4.15.09.3.13.46.13.37 0 .67-.21.9-.65.23-.43.35-1.03.35-1.8 0-.71-.1-1.25-.3-1.65-.2-.39-.48-.59-.83-.59-.33 0-.58.15-.75.46-.17.3-.25.77-.25 1.38V25Zm7.78-11.5c.45 0 .85.16 1.21.48.36.32.55.74.55 1.25 0 .49-.17.9-.52 1.23-.35.34-.76.5-1.24.5s-.91-.17-1.25-.52c-.34-.35-.51-.76-.51-1.23s.17-.89.52-1.22c.35-.34.76-.5 1.24-.5Zm-1.66 4.78h3.27v9.79h-3.27v-9.79Zm12.17 8.96c-1.26.7-2.42 1.06-3.51 1.06-1.41 0-2.56-.48-3.44-1.43-.88-.95-1.32-2.17-1.32-3.65s.42-2.65 1.25-3.65c.83-1 1.95-1.5 3.34-1.5 1.24 0 2.22.43 2.96 1.29.74.86 1.11 2 1.11 3.44v.81h-5.28c.15.65.41 1.15.77 1.47.36.33.83.49 1.41.49.45 0 .85-.1 1.23-.3.37-.2.86-.55 1.47-1.06v3.03Zm-2.47-5.37v-.33c0-.45-.12-.83-.35-1.14-.23-.31-.53-.47-.88-.47-.41 0-.73.16-.95.48-.22.32-.35.81-.39 1.46h2.57Zm7.42 2.59c1.05.86 1.96 1.29 2.73 1.29.29 0 .55-.08.76-.23.21-.15.32-.36.32-.61 0-.19-.08-.35-.25-.49-.17-.13-.48-.29-.94-.47-1.1-.42-1.81-.88-2.13-1.38-.32-.5-.48-.99-.48-1.49 0-.91.37-1.64 1.13-2.19.75-.55 1.66-.83 2.74-.83.93 0 1.86.21 2.77.64v2.9c-.76-.66-1.49-.98-2.19-.98-.32 0-.55.05-.71.15-.16.1-.24.26-.24.47 0 .29.34.54 1.02.76 1.84.61 2.77 1.58 2.77 2.93 0 .94-.38 1.74-1.14 2.39-.76.65-1.73.98-2.93.98-1 0-2.07-.28-3.22-.85v-2.98Z"/><path d="M66.39 13.74h3.59l1.58 9.43 1.63-9.43h3.64l-3.64 14.35h-3.31l-3.5-14.35Zm12.95-.23c.45 0 .85.16 1.21.48.36.32.55.74.55 1.25 0 .49-.17.9-.52 1.23-.35.34-.76.5-1.24.5s-.91-.17-1.25-.52c-.34-.35-.51-.76-.51-1.23s.17-.89.52-1.22c.35-.34.76-.5 1.24-.5Zm-1.66 4.78h3.27v9.79h-3.27v-9.79Zm5.26-4.55h3.27v14.35h-3.27V13.74Zm5.27 0h3.27v14.35h-3.27V13.74Zm5.68 5.12c1.12-.53 2.18-.79 3.18-.79.74 0 1.39.13 1.94.39s1.02.68 1.39 1.26c.38.58.57 1.32.57 2.23v3.29c0 .95.2 1.9.59 2.85h-3.27c-.12-.27-.22-.59-.3-.94-.32.38-.66.67-1.01.86-.35.19-.72.29-1.12.29-.76 0-1.44-.3-2.04-.91-.6-.61-.9-1.34-.9-2.21 0-1.96 1.69-3.15 5.07-3.58-.08-.35-.26-.62-.56-.8-.29-.18-.7-.27-1.21-.27-.75 0-1.53.31-2.32.92v-2.6Zm4.09 4.36c-1.37.12-2.05.63-2.05 1.53 0 .34.1.62.31.85.21.23.45.35.73.35.33 0 .58-.14.75-.42.17-.28.26-.63.26-1.06v-1.25Zm4.28 1.25c1.05.86 1.96 1.29 2.73 1.29.29 0 .55-.08.76-.23.21-.15.32-.36.32-.61 0-.19-.08-.35-.25-.49-.17-.13-.48-.29-.94-.47-1.1-.42-1.81-.88-2.13-1.38-.32-.5-.48-.99-.48-1.49 0-.91.38-1.64 1.13-2.19.75-.55 1.67-.83 2.74-.83.93 0 1.85.21 2.77.64v2.9c-.76-.66-1.49-.98-2.19-.98-.31 0-.55.05-.71.15-.16.1-.24.26-.24.47 0 .29.34.54 1.02.76 1.84.61 2.77 1.58 2.77 2.93 0 .94-.38 1.74-1.14 2.39-.76.65-1.73.98-2.93.98-1 0-2.07-.28-3.22-.85v-2.98Z" style="fill:#00aeef"/><path class="cls-2" d="M51.26 20.43v-.45c.8-.34 1.38-.79 1.74-1.33.36-.54.54-1.11.54-1.68 0-.11-.02-.2-.07-.26s-.1-.08-.14-.08c-.04 0-.1.02-.19.07-.2.12-.45.17-.74.17-.41 0-.76-.16-1.06-.47-.3-.31-.45-.69-.45-1.11 0-.45.17-.85.51-1.19.34-.34.76-.51 1.25-.51.59 0 1.1.23 1.51.68.42.46.63 1.08.63 1.88 0 .98-.3 1.85-.89 2.61-.59.76-1.47 1.32-2.64 1.67Z"/><path d="M44.06 10.94c0-.97-.78-1.75-1.75-1.75s-1.75.78-1.75 1.75.78 1.75 1.75 1.75 1.75-.78 1.75-1.75Z" style="fill:url(#New_Gradient_Swatch_1)"/><path d="M47.41 7.23c0-.97-.78-1.75-1.75-1.75s-1.75.78-1.75 1.75.78 1.75 1.75 1.75 1.75-.78 1.75-1.75Z" style="fill:url(#New_Gradient_Swatch_1-2)"/><path d="M51.34 4.36c0-.97-.78-1.75-1.75-1.75s-1.75.78-1.75 1.75.78 1.75 1.75 1.75 1.75-.78 1.75-1.75Z" style="fill:url(#New_Gradient_Swatch_1-3)"/><path d="M55.87 2.66c0-.97-.78-1.75-1.75-1.75s-1.75.78-1.75 1.75.78 1.75 1.75 1.75 1.75-.78 1.75-1.75Z" style="fill:url(#New_Gradient_Swatch_1-4)"/><path d="M60.89 1.75c0-.97-.78-1.75-1.75-1.75s-1.75.78-1.75 1.75.78 1.75 1.75 1.75 1.75-.78 1.75-1.75Z" style="fill:url(#New_Gradient_Swatch_1-5)"/><path d="M65.58 2.28c0-.97-.78-1.75-1.75-1.75s-1.75.78-1.75 1.75.78 1.75 1.75 1.75 1.75-.78 1.75-1.75Z" style="fill:url(#New_Gradient_Swatch_1-6)"/><path d="M70.16 3.75c0-.97-.78-1.75-1.75-1.75s-1.75.78-1.75 1.75.78 1.75 1.75 1.75 1.75-.78 1.75-1.75Z" style="fill:url(#New_Gradient_Swatch_1-7)"/><path d="M74.56 6.29c0-.97-.78-1.75-1.75-1.75s-1.75.78-1.75 1.75.79 1.75 1.75 1.75 1.75-.78 1.75-1.75Z" style="fill:url(#New_Gradient_Swatch_1-8)"/><path d="M78.46 10.34c0-.97-.78-1.75-1.75-1.75s-1.75.78-1.75 1.75.78 1.75 1.75 1.75 1.75-.78 1.75-1.75Z" style="fill:url(#New_Gradient_Swatch_1-9)"/></g></svg>